<?xml version="1.0" encoding="UTF-8"?>
<svg width="242px" height="63px" viewBox="0 0 242 63" version="1.1" xmlns="http://www.w3.org/2000/svg" xmlns:xlink="http://www.w3.org/1999/xlink">
    <title>kaizen_logoupdate_Expanded (1)</title>
    <g id="Page-1" stroke="none" stroke-width="1" fill="none" fill-rule="evenodd">
        <g id="kaizen_logoupdate_Expanded-(1)" transform="translate(1.000000, 1.000000)" fill="#FFFFFF" fill-rule="nonzero">
            <polygon id="Path" stroke="#FFFFFF" stroke-width="2" points="31.6 35.43 18.21 19.62 6.69 19.62 6.69 35.43 0 35.43 0 0 6.69 0 6.69 14.39 18.06 14.39 31.4 0 39.35 0 23.6 16.5 39.3 35.43"></polygon>
            <polygon id="Path" stroke="#FFFFFF" stroke-width="2" points="87.66 35.43 69.39 6.89 50.82 35.43 43.37 35.43 66.92 0 71.81 0 95.21 35.43"></polygon>
            <polygon id="Path" stroke="#FFFFFF" stroke-width="2" points="99.23 35.43 99.23 0 105.92 0 105.92 35.43"></polygon>
            <polygon id="Path" stroke="#FFFFFF" stroke-width="2" points="110.56 35.43 110.56 30.9 138.48 5.73 110.56 5.73 110.56 0 147.66 0 147.66 4.53 119.66 29.69 147.66 29.69 147.66 35.43"></polygon>
            <path d="M151.68,0 L188.12,0 L188.12,5.23 L151.68,5.23 M151.68,30.23 L188.12,30.23 L188.12,35.47 L151.68,35.47 M151.68,14.13 L188.12,14.13 L188.12,19.34 L151.68,19.34" id="Shape" stroke="#FFFFFF" stroke-width="2"></path>
            <polygon id="Path" stroke="#FFFFFF" stroke-width="2" points="236.2 35.43 198.41 7.85 198.41 35.43 192.57 35.43 192.57 0 198.36 0 233.64 26.34 233.64 0 239.47 0 239.47 35.43"></polygon>
            <path d="M36.75,61.81 C32.63,61.81 31.06,60.03 31.06,57.43 L31.06,48.06 C31.06,45.46 32.63,43.69 36.75,43.69 L51.35,43.69 L51.35,46.34 L36.75,46.34 C35.21,46.34 34.49,46.94 34.49,48.02 L34.49,57.44 C34.49,58.52 35.21,59.11 36.75,59.11 L51.35,59.11 L51.35,61.79 L36.75,61.81 Z" id="Path"></path>
            <path d="M72.66,61.81 C68.54,61.81 66.97,60.03 66.97,57.43 L66.97,48.06 C66.97,45.46 68.54,43.69 72.66,43.69 L84.66,43.69 C88.78,43.69 90.35,45.46 90.35,48.06 L90.35,57.43 C90.35,60.03 88.78,61.81 84.66,61.81 L72.66,61.81 Z M86.9,48.04 C86.9,46.96 86.18,46.36 84.63,46.36 L72.63,46.36 C71.09,46.36 70.37,46.96 70.37,48.04 L70.37,57.46 C70.37,58.54 71.09,59.13 72.63,59.13 L84.63,59.13 C86.18,59.13 86.9,58.54 86.9,57.46 L86.9,48.04 Z" id="Shape"></path>
            <path d="M123.62,61.81 L119.38,53.73 L109.83,53.73 L109.83,61.81 L106.4,61.81 L106.4,43.69 L121.8,43.69 C125.92,43.69 127.49,45.46 127.49,48.06 L127.49,49.34 C127.49,51.68 126.22,53.34 123.01,53.66 L127.28,61.8 L123.62,61.81 Z M124.06,48.04 C124.06,46.96 123.34,46.36 121.8,46.36 L109.8,46.36 L109.8,51.05 L121.8,51.05 C123.34,51.05 124.06,50.46 124.06,49.38 L124.06,48.04 Z" id="Shape"></path>
            <path d="M146.53,55.12 L146.53,61.81 L143.1,61.81 L143.1,43.69 L157.96,43.69 C162.07,43.69 163.64,45.46 163.64,48.06 L163.64,50.74 C163.64,53.34 162.07,55.12 157.96,55.12 L146.53,55.12 Z M160.22,48.04 C160.22,46.96 159.5,46.36 157.96,46.36 L146.53,46.36 L146.53,52.44 L157.96,52.44 C159.5,52.44 160.22,51.85 160.22,50.77 L160.22,48.04 Z" id="Shape"></path>
            <path d="M179.13,61.81 L179.13,59.13 L194.89,59.13 C196.43,59.13 197.15,58.54 197.15,57.46 L197.15,55.17 C197.15,54.09 196.43,53.49 194.89,53.49 L184.23,53.49 C180.11,53.49 178.54,51.72 178.54,49.12 L178.54,48.06 C178.54,45.46 180.11,43.69 184.23,43.69 L199.57,43.69 L199.57,46.34 L184.23,46.34 C182.69,46.34 181.96,46.94 181.96,48.02 L181.96,49.12 C181.96,50.21 182.69,50.8 184.23,50.8 L194.89,50.8 C199.01,50.8 200.58,52.57 200.58,55.17 L200.58,57.41 C200.58,60.01 199.01,61.79 194.89,61.79 L179.13,61.81 Z" id="Path"></path>
        </g>
    </g>
</svg>