<svg id="Layer_1" data-name="Layer 1" xmlns="http://www.w3.org/2000/svg" viewBox="0 0 241.48 62.81"><defs><style>.cls-1,.cls-2{fill:#231f20;}.cls-1{stroke:#231f20;stroke-miterlimit:10;stroke-width:2px;}</style></defs><path class="cls-1" d="M71.85,102.09,58.46,86.28H46.94v15.81H40.25V66.66h6.69V81.05H58.31L71.65,66.66H79.6L63.85,83.16l15.7,18.93Z" transform="translate(-39.25 -65.66)"/><path class="cls-1" d="M127.91,102.09,109.64,73.55,91.07,102.09H83.62l23.55-35.43h4.89l23.4,35.43Z" transform="translate(-39.25 -65.66)"/><path class="cls-1" d="M139.48,102.09V66.66h6.69v35.43Z" transform="translate(-39.25 -65.66)"/><path class="cls-1" d="M150.81,102.09V97.56l27.92-25.17H150.81V66.66h37.1v4.53l-28,25.16h28v5.74Z" transform="translate(-39.25 -65.66)"/><path class="cls-1" d="M191.93,66.66h36.44v5.23H191.93m0,25h36.44v5.24H191.93m0-21.34h36.44V86H191.93" transform="translate(-39.25 -65.66)"/><path class="cls-1" d="M276.45,102.09,238.66,74.51v27.58h-5.84V66.66h5.79L273.89,93V66.66h5.83v35.43Z" transform="translate(-39.25 -65.66)"/><path class="cls-2" d="M77,128.47c-4.12,0-5.69-1.78-5.69-4.38v-9.37c0-2.6,1.57-4.37,5.69-4.37h14.6V113H77c-1.54,0-2.26.6-2.26,1.68v9.42c0,1.08.72,1.67,2.26,1.67h14.6v2.68Z" transform="translate(-39.25 -65.66)"/><path class="cls-2" d="M112.91,128.47c-4.12,0-5.69-1.78-5.69-4.38v-9.37c0-2.6,1.57-4.37,5.69-4.37h12c4.12,0,5.69,1.77,5.69,4.37v9.37c0,2.6-1.57,4.38-5.69,4.38Zm14.24-13.77c0-1.08-.72-1.68-2.27-1.68h-12c-1.54,0-2.26.6-2.26,1.68v9.42c0,1.08.72,1.67,2.26,1.67h12c1.55,0,2.27-.59,2.27-1.67Z" transform="translate(-39.25 -65.66)"/><path class="cls-2" d="M163.87,128.47l-4.24-8.08h-9.55v8.08h-3.43V110.35h15.4c4.12,0,5.69,1.77,5.69,4.37V116c0,2.34-1.27,4-4.48,4.32l4.27,8.14Zm.44-13.77c0-1.08-.72-1.68-2.26-1.68h-12v4.69h12c1.54,0,2.26-.59,2.26-1.67Z" transform="translate(-39.25 -65.66)"/><path class="cls-2" d="M186.78,121.78v6.69h-3.43V110.35h14.86c4.11,0,5.68,1.77,5.68,4.37v2.68c0,2.6-1.57,4.38-5.68,4.38Zm13.69-7.08c0-1.08-.72-1.68-2.26-1.68H186.78v6.08h11.43c1.54,0,2.26-.59,2.26-1.67Z" transform="translate(-39.25 -65.66)"/><path class="cls-2" d="M219.38,128.47v-2.68h15.76c1.54,0,2.26-.59,2.26-1.67v-2.29c0-1.08-.72-1.68-2.26-1.68H224.48c-4.12,0-5.69-1.77-5.69-4.37v-1.06c0-2.6,1.57-4.37,5.69-4.37h15.34V113H224.48c-1.54,0-2.27.6-2.27,1.68v1.1c0,1.09.73,1.68,2.27,1.68h10.66c4.12,0,5.69,1.77,5.69,4.37v2.24c0,2.6-1.57,4.38-5.69,4.38Z" transform="translate(-39.25 -65.66)"/></svg>