<svg id="Layer_1" data-name="Layer 1" xmlns="http://www.w3.org/2000/svg" viewBox="0 0 207.25 239.31"><path d="M236.42,101.3v2L186,132l50.46,29.08v2c-8.18,4.62-16.37,9.22-24.53,13.88q-24.15,13.75-48.27,27.59-24.72,14.22-49.37,28.59c-10.49,6.13-20.86,12.45-31.28,18.68H81v-59c-10.85,6.24-21,12.2-31.33,18C42.89,214.69,36,218.27,29.17,222V42.47a6.15,6.15,0,0,1,2.43.23C43,49.29,54.35,56,65.72,62.58c4.91,2.86,9.85,5.64,15.26,8.73V12.55h2c2,1.23,4.09,2.48,6.16,3.68,17.82,10.4,35.61,20.85,53.48,31.18C157,55.7,171.4,63.83,185.77,72.08Q211.12,86.65,236.42,101.3Zm-53,30.82-101-58.39V190.46Z" transform="translate(-29.17 -12.55)"/></svg>